<mxfile host="app.diagrams.net" agent="Mozilla/5.0 (Windows NT 10.0; Win64; x64) AppleWebKit/537.36 (KHTML, like Gecko) Chrome/139.0.0.0 Safari/537.36" version="28.1.0">
  <diagram name="Page-1" id="yf4S35mM9bqjspl4HxHm">
    <mxGraphModel dx="1965" dy="1148" grid="1" gridSize="10" guides="1" tooltips="1" connect="1" arrows="1" fold="1" page="1" pageScale="1" pageWidth="850" pageHeight="1100" math="0" shadow="0">
      <root>
        <mxCell id="0" />
        <mxCell id="1" parent="0" />
        <mxCell id="rOinHpk7hcmLvDv25ZXu-5" style="edgeStyle=orthogonalEdgeStyle;rounded=0;orthogonalLoop=1;jettySize=auto;html=1;exitX=0.5;exitY=1;exitDx=0;exitDy=0;entryX=0.5;entryY=0;entryDx=0;entryDy=0;" parent="1" target="rOinHpk7hcmLvDv25ZXu-2" edge="1">
          <mxGeometry relative="1" as="geometry">
            <mxPoint x="333" y="80" as="sourcePoint" />
          </mxGeometry>
        </mxCell>
        <mxCell id="rOinHpk7hcmLvDv25ZXu-1" value="Start" style="ellipse;whiteSpace=wrap;html=1;aspect=fixed;fillColor=#d5e8d4;strokeColor=#82b366;" parent="1" vertex="1">
          <mxGeometry x="308" y="30" width="50" height="50" as="geometry" />
        </mxCell>
        <mxCell id="rOinHpk7hcmLvDv25ZXu-6" style="edgeStyle=orthogonalEdgeStyle;rounded=0;orthogonalLoop=1;jettySize=auto;html=1;exitX=0;exitY=0.5;exitDx=0;exitDy=0;entryX=0.5;entryY=0;entryDx=0;entryDy=0;" parent="1" source="rOinHpk7hcmLvDv25ZXu-2" target="rOinHpk7hcmLvDv25ZXu-4" edge="1">
          <mxGeometry relative="1" as="geometry" />
        </mxCell>
        <mxCell id="rOinHpk7hcmLvDv25ZXu-9" style="edgeStyle=orthogonalEdgeStyle;rounded=0;orthogonalLoop=1;jettySize=auto;html=1;exitX=1;exitY=0.5;exitDx=0;exitDy=0;entryX=0.5;entryY=0;entryDx=0;entryDy=0;" parent="1" source="rOinHpk7hcmLvDv25ZXu-2" target="rOinHpk7hcmLvDv25ZXu-8" edge="1">
          <mxGeometry relative="1" as="geometry" />
        </mxCell>
        <mxCell id="rOinHpk7hcmLvDv25ZXu-2" value="Check feeding time?" style="rhombus;whiteSpace=wrap;html=1;fillColor=#fff2cc;strokeColor=#d6b656;" parent="1" vertex="1">
          <mxGeometry x="233" y="110" width="200" height="80" as="geometry" />
        </mxCell>
        <mxCell id="rOinHpk7hcmLvDv25ZXu-24" style="edgeStyle=orthogonalEdgeStyle;rounded=0;orthogonalLoop=1;jettySize=auto;html=1;exitX=0;exitY=0.5;exitDx=0;exitDy=0;" parent="1" source="rOinHpk7hcmLvDv25ZXu-36" target="rOinHpk7hcmLvDv25ZXu-19" edge="1">
          <mxGeometry relative="1" as="geometry">
            <Array as="points">
              <mxPoint x="493" y="760" />
            </Array>
          </mxGeometry>
        </mxCell>
        <mxCell id="rOinHpk7hcmLvDv25ZXu-25" style="edgeStyle=orthogonalEdgeStyle;rounded=0;orthogonalLoop=1;jettySize=auto;html=1;exitX=1;exitY=0.5;exitDx=0;exitDy=0;entryX=0.5;entryY=0;entryDx=0;entryDy=0;" parent="1" source="rOinHpk7hcmLvDv25ZXu-36" edge="1">
          <mxGeometry relative="1" as="geometry">
            <mxPoint x="751" y="720" as="sourcePoint" />
            <mxPoint x="781.5" y="851" as="targetPoint" />
          </mxGeometry>
        </mxCell>
        <mxCell id="rOinHpk7hcmLvDv25ZXu-37" style="edgeStyle=orthogonalEdgeStyle;rounded=0;orthogonalLoop=1;jettySize=auto;html=1;exitX=0.5;exitY=1;exitDx=0;exitDy=0;entryX=0.5;entryY=0;entryDx=0;entryDy=0;" parent="1" source="rOinHpk7hcmLvDv25ZXu-3" target="rOinHpk7hcmLvDv25ZXu-36" edge="1">
          <mxGeometry relative="1" as="geometry" />
        </mxCell>
        <mxCell id="rOinHpk7hcmLvDv25ZXu-3" value="Wait 10 minutes" style="ellipse;whiteSpace=wrap;html=1;fillColor=#fff2cc;strokeColor=#d6b656;" parent="1" vertex="1">
          <mxGeometry x="618" y="610" width="120" height="60" as="geometry" />
        </mxCell>
        <mxCell id="rOinHpk7hcmLvDv25ZXu-11" style="edgeStyle=orthogonalEdgeStyle;rounded=0;orthogonalLoop=1;jettySize=auto;html=1;exitX=0.5;exitY=1;exitDx=0;exitDy=0;entryX=0;entryY=0.5;entryDx=0;entryDy=0;" parent="1" source="rOinHpk7hcmLvDv25ZXu-4" target="rOinHpk7hcmLvDv25ZXu-10" edge="1">
          <mxGeometry relative="1" as="geometry" />
        </mxCell>
        <mxCell id="rOinHpk7hcmLvDv25ZXu-42" style="edgeStyle=orthogonalEdgeStyle;rounded=0;orthogonalLoop=1;jettySize=auto;html=1;exitX=1;exitY=0.5;exitDx=0;exitDy=0;entryX=0;entryY=0;entryDx=0;entryDy=0;" parent="1" source="rOinHpk7hcmLvDv25ZXu-4" target="rOinHpk7hcmLvDv25ZXu-8" edge="1">
          <mxGeometry relative="1" as="geometry" />
        </mxCell>
        <mxCell id="rOinHpk7hcmLvDv25ZXu-4" value="Manual feed Requested?" style="rhombus;whiteSpace=wrap;html=1;fillColor=#dae8fc;strokeColor=#6c8ebf;" parent="1" vertex="1">
          <mxGeometry x="38" y="200" width="190" height="80" as="geometry" />
        </mxCell>
        <mxCell id="rOinHpk7hcmLvDv25ZXu-7" value="NO" style="text;html=1;align=center;verticalAlign=middle;resizable=0;points=[];autosize=1;strokeColor=none;fillColor=none;" parent="1" vertex="1">
          <mxGeometry x="143" y="125" width="40" height="30" as="geometry" />
        </mxCell>
        <mxCell id="rOinHpk7hcmLvDv25ZXu-15" style="edgeStyle=orthogonalEdgeStyle;rounded=0;orthogonalLoop=1;jettySize=auto;html=1;exitX=0;exitY=0.5;exitDx=0;exitDy=0;" parent="1" source="rOinHpk7hcmLvDv25ZXu-8" target="rOinHpk7hcmLvDv25ZXu-13" edge="1">
          <mxGeometry relative="1" as="geometry" />
        </mxCell>
        <mxCell id="rOinHpk7hcmLvDv25ZXu-16" style="edgeStyle=orthogonalEdgeStyle;rounded=0;orthogonalLoop=1;jettySize=auto;html=1;exitX=1;exitY=0.5;exitDx=0;exitDy=0;entryX=0.5;entryY=0;entryDx=0;entryDy=0;" parent="1" source="rOinHpk7hcmLvDv25ZXu-8" target="rOinHpk7hcmLvDv25ZXu-14" edge="1">
          <mxGeometry relative="1" as="geometry" />
        </mxCell>
        <mxCell id="rOinHpk7hcmLvDv25ZXu-8" value="Check food level?" style="rhombus;whiteSpace=wrap;html=1;fillColor=#dae8fc;strokeColor=#6c8ebf;" parent="1" vertex="1">
          <mxGeometry x="433" y="290" width="190" height="80" as="geometry" />
        </mxCell>
        <mxCell id="rOinHpk7hcmLvDv25ZXu-10" value="End / Repeat Cycle" style="ellipse;whiteSpace=wrap;html=1;aspect=fixed;fillColor=#b1ddf0;strokeColor=#10739e;" parent="1" vertex="1">
          <mxGeometry x="568" y="991" width="89" height="89" as="geometry" />
        </mxCell>
        <mxCell id="rOinHpk7hcmLvDv25ZXu-28" style="edgeStyle=orthogonalEdgeStyle;rounded=0;orthogonalLoop=1;jettySize=auto;html=1;exitX=0.25;exitY=1;exitDx=0;exitDy=0;entryX=0;entryY=0;entryDx=0;entryDy=0;" parent="1" source="rOinHpk7hcmLvDv25ZXu-13" target="rOinHpk7hcmLvDv25ZXu-10" edge="1">
          <mxGeometry relative="1" as="geometry">
            <Array as="points">
              <mxPoint x="374" y="470" />
              <mxPoint x="374" y="998" />
            </Array>
          </mxGeometry>
        </mxCell>
        <mxCell id="rOinHpk7hcmLvDv25ZXu-13" value="Trigger Refill Alert" style="shape=parallelogram;perimeter=parallelogramPerimeter;whiteSpace=wrap;html=1;fixedSize=1;fillColor=#647687;fontColor=#ffffff;strokeColor=#314354;" parent="1" vertex="1">
          <mxGeometry x="291" y="420" width="165" height="50" as="geometry" />
        </mxCell>
        <mxCell id="rOinHpk7hcmLvDv25ZXu-21" style="edgeStyle=orthogonalEdgeStyle;rounded=0;orthogonalLoop=1;jettySize=auto;html=1;exitX=0.5;exitY=1;exitDx=0;exitDy=0;entryX=0.5;entryY=0;entryDx=0;entryDy=0;" parent="1" source="rOinHpk7hcmLvDv25ZXu-14" target="rOinHpk7hcmLvDv25ZXu-17" edge="1">
          <mxGeometry relative="1" as="geometry" />
        </mxCell>
        <mxCell id="rOinHpk7hcmLvDv25ZXu-14" value="Activate Dispense Motor(3s)" style="rounded=0;whiteSpace=wrap;html=1;fillColor=#f8cecc;strokeColor=#b85450;" parent="1" vertex="1">
          <mxGeometry x="618" y="420" width="120" height="50" as="geometry" />
        </mxCell>
        <mxCell id="rOinHpk7hcmLvDv25ZXu-22" style="edgeStyle=orthogonalEdgeStyle;rounded=0;orthogonalLoop=1;jettySize=auto;html=1;exitX=0.5;exitY=1;exitDx=0;exitDy=0;" parent="1" source="rOinHpk7hcmLvDv25ZXu-17" target="rOinHpk7hcmLvDv25ZXu-3" edge="1">
          <mxGeometry relative="1" as="geometry" />
        </mxCell>
        <mxCell id="rOinHpk7hcmLvDv25ZXu-17" value="Record Bowl Weight" style="shape=parallelogram;perimeter=parallelogramPerimeter;whiteSpace=wrap;html=1;fixedSize=1;fillColor=#647687;fontColor=#ffffff;strokeColor=#314354;" parent="1" vertex="1">
          <mxGeometry x="595.5" y="520" width="165" height="50" as="geometry" />
        </mxCell>
        <mxCell id="rOinHpk7hcmLvDv25ZXu-29" style="edgeStyle=orthogonalEdgeStyle;rounded=0;orthogonalLoop=1;jettySize=auto;html=1;exitX=0.5;exitY=1;exitDx=0;exitDy=0;" parent="1" source="rOinHpk7hcmLvDv25ZXu-19" target="rOinHpk7hcmLvDv25ZXu-10" edge="1">
          <mxGeometry relative="1" as="geometry">
            <Array as="points">
              <mxPoint x="492" y="970" />
              <mxPoint x="612" y="970" />
            </Array>
          </mxGeometry>
        </mxCell>
        <mxCell id="rOinHpk7hcmLvDv25ZXu-19" value="Feeding Successfull" style="shape=parallelogram;perimeter=parallelogramPerimeter;whiteSpace=wrap;html=1;fixedSize=1;fillColor=#f5f5f5;fontColor=#333333;strokeColor=#666666;" parent="1" vertex="1">
          <mxGeometry x="410" y="851" width="165" height="50" as="geometry" />
        </mxCell>
        <mxCell id="rOinHpk7hcmLvDv25ZXu-30" style="edgeStyle=orthogonalEdgeStyle;rounded=0;orthogonalLoop=1;jettySize=auto;html=1;exitX=0.5;exitY=1;exitDx=0;exitDy=0;entryX=1;entryY=0.5;entryDx=0;entryDy=0;" parent="1" source="rOinHpk7hcmLvDv25ZXu-20" target="rOinHpk7hcmLvDv25ZXu-10" edge="1">
          <mxGeometry relative="1" as="geometry" />
        </mxCell>
        <mxCell id="rOinHpk7hcmLvDv25ZXu-20" value="Send &quot;Uneaten&quot; Alert" style="shape=parallelogram;perimeter=parallelogramPerimeter;whiteSpace=wrap;html=1;fixedSize=1;fillColor=#f5f5f5;fontColor=#333333;strokeColor=#666666;" parent="1" vertex="1">
          <mxGeometry x="680" y="851" width="165" height="50" as="geometry" />
        </mxCell>
        <mxCell id="rOinHpk7hcmLvDv25ZXu-33" value="NO" style="text;html=1;align=center;verticalAlign=middle;resizable=0;points=[];autosize=1;strokeColor=none;fillColor=none;" parent="1" vertex="1">
          <mxGeometry x="379" y="304" width="40" height="30" as="geometry" />
        </mxCell>
        <mxCell id="rOinHpk7hcmLvDv25ZXu-34" value="Yes" style="text;html=1;align=center;verticalAlign=middle;resizable=0;points=[];autosize=1;strokeColor=none;fillColor=none;" parent="1" vertex="1">
          <mxGeometry x="460" y="125" width="40" height="30" as="geometry" />
        </mxCell>
        <mxCell id="rOinHpk7hcmLvDv25ZXu-35" value="Yes" style="text;html=1;align=center;verticalAlign=middle;resizable=0;points=[];autosize=1;strokeColor=none;fillColor=none;" parent="1" vertex="1">
          <mxGeometry x="636" y="304" width="40" height="30" as="geometry" />
        </mxCell>
        <mxCell id="rOinHpk7hcmLvDv25ZXu-36" value="Check Bowl Weight Change" style="rhombus;whiteSpace=wrap;html=1;fillColor=#d5e8d4;strokeColor=#82b366;" parent="1" vertex="1">
          <mxGeometry x="561" y="720" width="190" height="80" as="geometry" />
        </mxCell>
        <mxCell id="rOinHpk7hcmLvDv25ZXu-40" value="&amp;gt;= 5g" style="text;html=1;align=center;verticalAlign=middle;resizable=0;points=[];autosize=1;strokeColor=none;fillColor=none;" parent="1" vertex="1">
          <mxGeometry x="447" y="790" width="50" height="30" as="geometry" />
        </mxCell>
        <mxCell id="rOinHpk7hcmLvDv25ZXu-41" value="&amp;lt;= 5g" style="text;html=1;align=center;verticalAlign=middle;resizable=0;points=[];autosize=1;strokeColor=none;fillColor=none;" parent="1" vertex="1">
          <mxGeometry x="780" y="790" width="50" height="30" as="geometry" />
        </mxCell>
      </root>
    </mxGraphModel>
  </diagram>
</mxfile>
